<svg width="1109" height="540" viewBox="0 0 1109 540" fill="none" xmlns="http://www.w3.org/2000/svg">
<path opacity="0.5" d="M1.58593 507.742L1109 507.742M507.246 540L507.246 1.58648M1076.77 540L1076.77 1.58645M1.58591 96.0141L1109 96.0141M95.9212 540L95.9212 1.58649M665.448 540L665.448 1.58647M1.58593 476.071L1109 476.071M475.606 540L475.606 1.58648M1045.13 540L1045.13 1.58645M1.58591 64.3428L1109 64.3427M64.2808 540L64.2808 1.5865M633.808 540L633.808 1.58647M1.58593 444.399L1109 444.399M443.966 540L443.966 1.58648M1013.49 540L1013.49 1.58645M1.58591 32.6714L1109 32.6714M32.6404 540L32.6404 1.5865M602.168 540L602.168 1.58647M1.58593 412.728L1109 412.728M412.325 540L412.325 1.58648M981.852 540L981.852 1.58646M1.58591 0.999992L1109 0.999979M1 540L0.999976 1.5865M570.527 540L570.527 1.58647M1.58593 381.057L1109 381.057M380.685 540L380.685 1.58648M950.212 540L950.212 1.58646M1.58593 349.385L1109 349.385M349.044 540L349.044 1.58648M918.572 540L918.572 1.58646M1.58592 317.714L1109 317.714M317.404 540L317.404 1.58648M886.931 540L886.931 1.58646M1.58592 286.042L1109 286.042M285.764 540L285.764 1.58649M855.291 540L855.291 1.58646M1.58592 254.371L1109 254.371M254.123 540L254.123 1.58649M823.65 540L823.65 1.58646M1.58592 222.7L1109 222.7M222.483 540L222.483 1.58649M792.01 540L792.01 1.58646M1.58592 191.028L1109 191.028M190.842 540L190.842 1.58649M760.37 540L760.37 1.58647M1.58592 159.357L1109 159.357M159.202 540L159.202 1.58649M728.729 540L728.729 1.58647M1.58593 539.413L1109 539.413M538.887 540L538.887 1.58648M1108.41 540L1108.41 1.58645M1.58592 127.686L1109 127.686M127.562 540L127.562 1.58649M697.089 540L697.089 1.58647" stroke="url(#paint0_radial_9_3030)"/>
<defs>
<radialGradient id="paint0_radial_9_3030" cx="0" cy="0" r="1" gradientUnits="userSpaceOnUse" gradientTransform="translate(555 270.5) scale(554 269.5)">
<stop stop-color="#2475EE"/>
<stop offset="1" stop-color="#2475EE" stop-opacity="0"/>
</radialGradient>
</defs>
</svg>
